<svg width="83" height="83" viewBox="0 0 83 83" fill="none" xmlns="http://www.w3.org/2000/svg">
<path fill-rule="evenodd" clip-rule="evenodd" d="M17.7323 15.7038H4.80848V22.4607H17.7323V15.7038ZM17.7323 31.0981H4.80848V37.8447H17.7323V31.0981ZM17.7323 46.4811H4.80848V53.2298H17.7323V46.4811ZM17.7323 61.8662H4.80848V68.6231H17.7323V61.8662ZM78.0515 15.7038H65.1277V22.4607H78.0515V15.7038ZM78.0515 31.0981H65.1277V37.8447H78.0515V31.0981ZM78.0515 46.4811H65.1277V53.2298H78.0515V46.4811ZM78.0515 61.8662H65.1277V68.6231H78.0515V61.8662ZM52.6851 41.9254L29.1523 29.7559V53.286L52.6851 41.9254ZM2.82152 1.62087e-06H3.86862H4.80848V0.941772V7.07559H17.7323V0.941772V1.62087e-06H18.6823H64.1869H65.1277V0.941772V7.07559H78.0515V0.941772V1.62087e-06H79.0005H80.1702C80.9466 1.62087e-06 81.6597 0.319721 82.1664 0.826361L82.1746 0.835537C82.6894 1.35035 83 2.05311 83 2.83146V80.1706C83 80.9469 82.6894 81.6506 82.1746 82.1665H82.1664C81.6597 82.6813 80.9466 83 80.1702 83H79.0005H78.0515V82.0521V77.2503H65.1277V82.0521V83H64.1869H18.6823H17.7323V82.0521V77.2503H4.80848V82.0521V83H3.86862H2.82152C2.0533 83 1.34026 82.6813 0.833562 82.1665H0.825381C0.310513 81.6506 0 80.9469 0 80.1706V2.83146C0 2.05311 0.310513 1.35035 0.825381 0.835537L0.833562 0.826361C1.34026 0.319721 2.0533 1.62087e-06 2.82152 1.62087e-06Z" fill="white"/>
</svg>
