<svg width="352" height="89" viewBox="0 0 352 89" fill="none" xmlns="http://www.w3.org/2000/svg">
<path d="M85.6043 78.3208H103.297C103.496 77.3739 103.596 76.3771 103.596 75.3305C103.596 67.8049 98.2135 62.1731 90.937 62.1731C83.0625 62.1731 77.6799 67.9045 77.6799 75.3305C77.6799 82.7565 82.9628 88.4879 91.4852 88.4879C96.2199 88.4879 99.908 86.7436 102.35 83.3545L96.3694 79.9157C95.3727 81.0121 93.6283 81.8095 91.5849 81.8095C88.8438 81.8095 86.5512 80.9124 85.6043 78.3208ZM85.4548 72.7389C86.1525 70.1971 88.0464 68.8016 90.8872 68.8016C93.1299 68.8016 95.3727 69.8482 96.1701 72.7389H85.4548Z" fill="white"/>
<path d="M113.94 70.1473C113.94 69.2502 114.737 68.7518 116.033 68.7518C117.678 68.7518 118.675 69.6489 119.372 70.9447L125.752 67.5058C123.658 63.9673 120.07 62.1731 116.033 62.1731C110.85 62.1731 106.265 64.9142 106.265 70.3466C106.265 78.9687 118.525 77.5234 118.525 80.2645C118.525 81.2613 117.628 81.8095 115.834 81.8095C113.641 81.8095 112.245 80.7629 111.597 78.869L105.118 82.5571C107.062 86.594 110.85 88.4879 115.834 88.4879C121.216 88.4879 126.2 86.0458 126.2 80.3144C126.2 71.0942 113.94 72.9881 113.94 70.1473Z" fill="white"/>
<path d="M141.651 88.4879C146.535 88.4879 150.771 85.9461 152.914 82.0587L146.385 78.3208C145.588 80.0652 143.744 81.1118 141.551 81.1118C138.311 81.1118 135.919 78.7694 135.919 75.3305C135.919 71.8916 138.311 69.5492 141.551 69.5492C143.744 69.5492 145.538 70.5958 146.385 72.3402L152.914 68.5524C150.771 64.7149 146.485 62.1731 141.651 62.1731C134.075 62.1731 128.443 67.9045 128.443 75.3305C128.443 82.7565 134.075 88.4879 141.651 88.4879Z" fill="white"/>
<path d="M173.527 62.8708V65.2133C171.883 63.3194 169.441 62.1731 166.101 62.1731C159.573 62.1731 154.19 67.9045 154.19 75.3305C154.19 82.7565 159.573 88.4879 166.101 88.4879C169.441 88.4879 171.883 87.3416 173.527 85.4477V87.7902H181.003V62.8708H173.527ZM167.597 81.4108C164.158 81.4108 161.666 79.0684 161.666 75.3305C161.666 71.5926 164.158 69.2502 167.597 69.2502C171.036 69.2502 173.527 71.5926 173.527 75.3305C173.527 79.0684 171.036 81.4108 167.597 81.4108Z" fill="white"/>
<path d="M186.91 87.7902H194.385V51.408H186.91V87.7902Z" fill="#FF2961"/>
<path d="M217.947 62.8708V65.2133C216.303 63.3194 213.861 62.1731 210.522 62.1731C203.993 62.1731 198.61 67.9046 198.61 75.3305C198.61 82.7565 203.993 88.4879 210.522 88.4879C213.861 88.4879 216.303 87.3416 217.947 85.4478V87.7902H225.423V62.8708H217.947ZM212.017 81.4108C208.578 81.4108 206.086 79.0684 206.086 75.3305C206.086 71.5926 208.578 69.2502 212.017 69.2502C215.456 69.2502 217.947 71.5926 217.947 75.3305C217.947 79.0684 215.456 81.4108 212.017 81.4108Z" fill="#FF2961"/>
<path d="M245.81 62.1731C242.47 62.1731 240.028 63.3194 238.384 65.2133V52.9031H230.908V87.7902H238.384V85.4478C240.028 87.3416 242.47 88.4879 245.81 88.4879C252.338 88.4879 257.721 82.7565 257.721 75.3305C257.721 67.9046 252.338 62.1731 245.81 62.1731ZM244.314 81.4108C240.876 81.4108 238.384 79.0684 238.384 75.3305C238.384 71.5926 240.876 69.2502 244.314 69.2502C247.753 69.2502 250.245 71.5926 250.245 75.3305C250.245 79.0684 247.753 81.4108 244.314 81.4108Z" fill="#FF2961"/>
<path d="M50.4 1.008H38.88L25.2 23.4L11.52 1.008H0V51.408H11.52V22.104L24.552 43.488H25.848L38.88 22.104V51.408H50.4V1.008Z" fill="#FFD5DF"/>
<path d="M83.1105 52.416C97.5825 52.416 109.319 41.04 109.319 26.208C109.319 11.376 97.5825 0 83.1105 0C68.6385 0 56.9025 11.376 56.9025 26.208C56.9025 41.04 68.6385 52.416 83.1105 52.416ZM83.1105 41.184C74.9025 41.184 68.4225 35.208 68.4225 26.208C68.4225 17.208 74.9025 11.232 83.1105 11.232C91.3185 11.232 97.7985 17.208 97.7985 26.208C97.7985 35.208 91.3185 41.184 83.1105 41.184Z" fill="#FFD5DF"/>
<path d="M125.721 51.408H140.409L156.825 1.008H144.225L133.065 38.088L121.905 1.008H109.305L125.721 51.408Z" fill="#FFD5DF"/>
<path d="M161.156 1.008V51.408H172.676V1.008H161.156Z" fill="#FFD5DF"/>
<path d="M192.856 40.32V31.392H210.856V20.448H192.856V12.096H212.656V1.008H181.336V51.408H213.016V40.32H192.856Z" fill="#FFD5DF"/>
<path d="M237.156 52.416C248.1 52.416 255.876 46.656 255.876 36.936C255.876 26.28 247.308 23.616 239.676 21.312C231.828 18.936 230.604 17.352 230.604 15.048C230.604 13.032 232.404 11.232 236.004 11.232C240.612 11.232 242.988 13.464 244.716 17.064L254.436 11.376C250.764 3.96 244.284 0 236.004 0C227.292 0 219.084 5.616 219.084 15.336C219.084 24.984 226.428 28.584 233.916 30.672C241.476 32.76 244.356 33.984 244.356 37.08C244.356 39.024 242.988 41.184 237.516 41.184C231.828 41.184 228.732 38.376 226.932 34.2L216.996 39.96C219.804 47.376 226.572 52.416 237.156 52.416Z" fill="#FFD5DF"/>
<path fill-rule="evenodd" clip-rule="evenodd" d="M286.732 20.7038H273.808V27.4607H286.732V20.7038ZM286.732 36.0981H273.808V42.8447H286.732V36.0981ZM286.732 51.4811H273.808V58.2298H286.732V51.4811ZM286.732 66.8662H273.808V73.6231H286.732V66.8662ZM347.052 20.7038H334.128V27.4607H347.052V20.7038ZM347.052 36.0981H334.128V42.8447H347.052V36.0981ZM347.052 51.4811H334.128V58.2298H347.052V51.4811ZM347.052 66.8662H334.128V73.6231H347.052V66.8662ZM321.685 46.9254L298.152 34.7559V58.286L321.685 46.9254ZM271.822 5H272.869H273.808V5.94177V12.0756H286.732V5.94177V5H287.682H333.187H334.128V5.94177V12.0756H347.052V5.94177V5H348.001H349.17C349.947 5 350.66 5.31972 351.166 5.82636L351.175 5.83554C351.689 6.35035 352 7.05311 352 7.83146V85.1706C352 85.9469 351.689 86.6506 351.175 87.1665H351.166C350.66 87.6813 349.947 88 349.17 88H348.001H347.052V87.0521V82.2503H334.128V87.0521V88H333.187H287.682H286.732V87.0521V82.2503H273.808V87.0521V88H272.869H271.822C271.053 88 270.34 87.6813 269.834 87.1665H269.825C269.311 86.6506 269 85.9469 269 85.1706V7.83146C269 7.05311 269.311 6.35035 269.825 5.83554L269.834 5.82636C270.34 5.31972 271.053 5 271.822 5Z" fill="white"/>
</svg>
