<svg width="259" height="90" viewBox="0 0 259 90" fill="none" xmlns="http://www.w3.org/2000/svg">
<path d="M85.9243 78.9129H103.617C103.816 77.9659 103.916 76.9692 103.916 75.9225C103.916 68.3969 98.5335 62.7651 91.2571 62.7651C83.3826 62.7651 78 68.4966 78 75.9225C78 83.3485 83.2829 89.0799 91.8053 89.0799C96.54 89.0799 100.228 87.3356 102.67 83.9466L96.6895 80.5077C95.6927 81.6041 93.9484 82.4016 91.905 82.4016C89.1639 82.4016 86.8713 81.5045 85.9243 78.9129ZM85.7748 73.3309C86.4726 70.7892 88.3664 69.3937 91.2072 69.3937C93.45 69.3937 95.6927 70.4403 96.4901 73.3309H85.7748Z" fill="white"/>
<path d="M114.26 70.7393C114.26 69.8422 115.057 69.3438 116.353 69.3438C117.998 69.3438 118.995 70.2409 119.692 71.5367L126.072 68.0979C123.978 64.5593 120.39 62.7651 116.353 62.7651C111.17 62.7651 106.585 65.5063 106.585 70.9387C106.585 79.5608 118.845 78.1154 118.845 80.8566C118.845 81.8533 117.948 82.4016 116.154 82.4016C113.961 82.4016 112.565 81.355 111.918 79.4611L105.439 83.1491C107.382 87.1861 111.17 89.0799 116.154 89.0799C121.536 89.0799 126.52 86.6378 126.52 80.9064C126.52 71.6863 114.26 73.5801 114.26 70.7393Z" fill="white"/>
<path d="M141.971 89.0799C146.855 89.0799 151.091 86.5382 153.234 82.6508L146.705 78.9129C145.908 80.6572 144.064 81.7038 141.871 81.7038C138.631 81.7038 136.239 79.3614 136.239 75.9225C136.239 72.4837 138.631 70.1413 141.871 70.1413C144.064 70.1413 145.858 71.1879 146.705 72.9322L153.234 69.1445C151.091 65.3069 146.805 62.7651 141.971 62.7651C134.395 62.7651 128.763 68.4966 128.763 75.9225C128.763 83.3485 134.395 89.0799 141.971 89.0799Z" fill="white"/>
<path d="M173.848 63.4629V65.8053C172.203 63.9114 169.761 62.7651 166.422 62.7651C159.893 62.7651 154.51 68.4966 154.51 75.9225C154.51 83.3485 159.893 89.0799 166.422 89.0799C169.761 89.0799 172.203 87.9337 173.848 86.0398V88.3822H181.323V63.4629H173.848ZM167.917 82.0029C164.478 82.0029 161.986 79.6604 161.986 75.9225C161.986 72.1846 164.478 69.8422 167.917 69.8422C171.356 69.8422 173.848 72.1846 173.848 75.9225C173.848 79.6604 171.356 82.0029 167.917 82.0029Z" fill="white"/>
<path d="M187.23 88.3822H194.706V52H187.23V88.3822Z" fill="#FF2961"/>
<path d="M218.268 63.4629V65.8053C216.623 63.9114 214.181 62.7651 210.842 62.7651C204.313 62.7651 198.93 68.4966 198.93 75.9226C198.93 83.3485 204.313 89.08 210.842 89.08C214.181 89.08 216.623 87.9337 218.268 86.0398V88.3822H225.743V63.4629H218.268ZM212.337 82.0029C208.898 82.0029 206.406 79.6604 206.406 75.9226C206.406 72.1847 208.898 69.8422 212.337 69.8422C215.776 69.8422 218.268 72.1847 218.268 75.9226C218.268 79.6604 215.776 82.0029 212.337 82.0029Z" fill="#FF2961"/>
<path d="M246.13 62.7651C242.79 62.7651 240.348 63.9114 238.704 65.8053V53.4952H231.228V88.3822H238.704V86.0398C240.348 87.9337 242.79 89.08 246.13 89.08C252.659 89.08 258.041 83.3485 258.041 75.9226C258.041 68.4966 252.659 62.7651 246.13 62.7651ZM244.635 82.0029C241.196 82.0029 238.704 79.6604 238.704 75.9226C238.704 72.1847 241.196 69.8422 244.635 69.8422C248.073 69.8422 250.565 72.1847 250.565 75.9226C250.565 79.6604 248.073 82.0029 244.635 82.0029Z" fill="#FF2961"/>
<path d="M50.72 1.60004H39.2L25.52 23.992L11.84 1.60004H0.320007V52H11.84V22.696L24.872 44.08H26.168L39.2 22.696V52H50.72V1.60004Z" fill="#FFD5DF"/>
<path d="M83.4305 53.008C97.9025 53.008 109.639 41.632 109.639 26.8C109.639 11.968 97.9025 0.592041 83.4305 0.592041C68.9585 0.592041 57.2225 11.968 57.2225 26.8C57.2225 41.632 68.9585 53.008 83.4305 53.008ZM83.4305 41.776C75.2225 41.776 68.7425 35.8 68.7425 26.8C68.7425 17.8 75.2225 11.824 83.4305 11.824C91.6385 11.824 98.1185 17.8 98.1185 26.8C98.1185 35.8 91.6385 41.776 83.4305 41.776Z" fill="#FFD5DF"/>
<path d="M126.041 52H140.729L157.145 1.60004H144.545L133.385 38.68L122.225 1.60004H109.625L126.041 52Z" fill="#FFD5DF"/>
<path d="M161.476 1.60004V52H172.996V1.60004H161.476Z" fill="#FFD5DF"/>
<path d="M193.176 40.912V31.984H211.176V21.04H193.176V12.688H212.976V1.60004H181.656V52H213.336V40.912H193.176Z" fill="#FFD5DF"/>
<path d="M237.476 53.008C248.42 53.008 256.196 47.248 256.196 37.528C256.196 26.872 247.628 24.208 239.996 21.904C232.148 19.528 230.924 17.944 230.924 15.64C230.924 13.624 232.724 11.824 236.324 11.824C240.932 11.824 243.308 14.056 245.036 17.656L254.756 11.968C251.084 4.55204 244.604 0.592041 236.324 0.592041C227.612 0.592041 219.404 6.20804 219.404 15.928C219.404 25.576 226.748 29.176 234.236 31.264C241.796 33.352 244.676 34.576 244.676 37.672C244.676 39.616 243.308 41.776 237.836 41.776C232.148 41.776 229.052 38.968 227.252 34.792L217.316 40.552C220.124 47.968 226.892 53.008 237.476 53.008Z" fill="#FFD5DF"/>
</svg>
